<?xml version="1.0" encoding="UTF-8" standalone="no"?>
<svg
   xmlns:osb="http://www.openswatchbook.org/uri/2009/osb"
   xmlns:dc="http://purl.org/dc/elements/1.1/"
   xmlns:cc="http://creativecommons.org/ns#"
   xmlns:rdf="http://www.w3.org/1999/02/22-rdf-syntax-ns#"
   xmlns:svg="http://www.w3.org/2000/svg"
   xmlns="http://www.w3.org/2000/svg"
   xmlns:xlink="http://www.w3.org/1999/xlink"
   xmlns:sodipodi="http://sodipodi.sourceforge.net/DTD/sodipodi-0.dtd"
   xmlns:inkscape="http://www.inkscape.org/namespaces/inkscape"
   width="104.91581mm"
   height="94.335358mm"
   viewBox="0 0 104.91581 94.335358"
   version="1.1"
   id="svg8"
   inkscape:version="1.0 (4035a4fb49, 2020-05-01)"
   sodipodi:docname="logo-workshops.svg">
  <defs
     id="defs2">
    <pattern
       inkscape:collect="always"
       xlink:href="#pattern978"
       id="pattern1948"
       patternTransform="matrix(0.26457988,-0.00135203,0.00135203,0.26457988,63.143634,125.44598)" />
    <linearGradient
       id="linearGradient841"
       osb:paint="solid">
      <stop
         style="stop-color:#0000ff;stop-opacity:1;"
         offset="0"
         id="stop839" />
    </linearGradient>
    <pattern
       patternUnits="userSpaceOnUse"
       width="318.12792"
       height="184.11932"
       patternTransform="translate(239.11222,468.41667)"
       id="pattern978">
      <path
         id="path976"
         d="M 0.49507544,1.8897475 C 314.67524,3.6270074 314.91713,3.19342 314.91713,3.19342 Z"
         style="fill:#5e5e5e;fill-opacity:1;stroke:#5e5e5e;stroke-width:3.77953;stroke-linecap:butt;stroke-linejoin:miter;stroke-miterlimit:4;stroke-dasharray:none;stroke-opacity:1" />
      <path
         id="path974"
         d="M 0.49508677,48.617445 C 314.67524,50.354705 314.91713,49.921118 314.91713,49.921118 Z"
         style="fill:#5e5e5e;fill-opacity:1;stroke:#5e5e5e;stroke-width:3.77953;stroke-linecap:butt;stroke-linejoin:miter;stroke-miterlimit:4;stroke-dasharray:none;stroke-opacity:1" />
      <path
         id="path972"
         d="M 0.01044929,93.70857 C 314.19059,95.445829 314.43248,95.012242 314.43248,95.012242 Z"
         style="fill:#5e5e5e;fill-opacity:1;stroke:#5e5e5e;stroke-width:3.77953;stroke-linecap:butt;stroke-linejoin:miter;stroke-miterlimit:4;stroke-dasharray:none;stroke-opacity:1" />
      <path
         id="path970"
         d="M 0.49509811,141.24599 C 314.67524,142.98325 314.91713,142.54967 314.91713,142.54967 Z"
         style="fill:#5e5e5e;fill-opacity:1;stroke:#5e5e5e;stroke-width:3.77953;stroke-linecap:butt;stroke-linejoin:miter;stroke-miterlimit:4;stroke-dasharray:none;stroke-opacity:1" />
      <path
         id="path926-4"
         d="M 0.49510945,180.87782 C 314.67524,182.61508 314.91713,182.18149 314.91713,182.18149 Z"
         style="fill:#5e5e5e;fill-opacity:1;stroke:#5e5e5e;stroke-width:3.77953;stroke-linecap:butt;stroke-linejoin:miter;stroke-miterlimit:4;stroke-dasharray:none;stroke-opacity:1" />
    </pattern>
    <linearGradient
       y2="64.887001"
       x2="258.461"
       y1="446.746"
       x1="258.59601"
       gradientUnits="userSpaceOnUse"
       id="linear-gradient"
       gradientTransform="matrix(0.0331331,0,0,0.02906695,130.59868,123.12365)">
      <stop
         id="stop2048"
         stop-opacity="1"
         stop-color="#05bc29"
         offset="0" />
      <stop
         id="stop2050"
         stop-opacity="1"
         stop-color="#5bf877"
         offset="1" />
    </linearGradient>
    <clipPath
       id="clipPath175"
       clipPathUnits="userSpaceOnUse">
      <path
         d="m 128.6924,126.6393 v 3.59254 c 0.17849,-0.15533 0.35867,-0.30863 0.54622,-0.4532 0.10611,-0.0818 0.20818,-0.11771 0.29507,-0.12092 0.26069,-0.01 0.38439,0.27781 0.0667,0.524 -0.25633,0.19863 -0.50134,0.4106 -0.74414,0.62528 -0.12881,0.11391 -0.13621,0.11693 -0.16381,0.15761 v 5.63118 h 17.2222 v -9.95649 z"
         style="fill:#ff0000;fill-opacity:1;fill-rule:nonzero;stroke:none;stroke-width:0.264583"
         id="path177" />
    </clipPath>
    <clipPath
       id="clipPath207"
       clipPathUnits="userSpaceOnUse">
      <path
         d="m 128.6924,138.97808 v 3.66386 c 0.23999,-0.39755 0.0899,-0.17495 0.44648,-0.678 v 0.001 c 0.11624,-0.16395 0.25123,-0.22305 0.35812,-0.20929 0.17816,0.0229 0.27847,0.24713 0.0847,0.52038 -0.0881,0.12427 -0.18056,0.24569 -0.26406,0.3731 -0.0626,0.0955 -0.11635,0.19645 -0.17467,0.29456 -2e-5,0.006 -7.9e-4,0.0119 -5.3e-4,0.017 0.0108,0.14634 -0.0378,0.30719 -0.17363,0.39119 -0.0662,0.041 -0.15348,0.0228 -0.23048,0.0341 -0.0154,-0.005 -0.0307,-0.01 -0.046,-0.015 v 5.56349 h 17.2222 v -9.9565 z m 0.10697,3.86953 c -0.0742,0.0288 -0.0911,0.0352 -0.10697,0.046 v 0.13023 c 0.0314,0.003 0.0627,0.006 0.0941,0.008 0.16319,-0.0859 0.29247,-0.15811 0.0501,-0.18087 -0.0125,-0.002 -0.0248,-0.003 -0.0372,-0.004 z"
         style="fill:#ff0000;fill-opacity:1;fill-rule:nonzero;stroke:none;stroke-width:0.264583"
         id="path209" />
    </clipPath>
    <clipPath
       id="clipPath303"
       clipPathUnits="userSpaceOnUse">
      <path
         d="m 128.21078,151.57783 v 3.26491 c 0.0929,-0.0904 0.17931,-0.17009 0.36018,-0.33693 l 5.3e-4,-5.3e-4 c 0.0985,-0.0908 0.19677,-0.13482 0.28215,-0.14469 0.0414,-0.005 0.078,7.9e-4 0.11214,0.0109 0.0525,-0.0301 0.10411,-0.0508 0.15193,-0.0584 0.26008,-0.0411 0.41859,0.22486 0.13074,0.5054 -0.0609,0.0594 -0.26043,0.25489 -0.40773,0.40566 0.0379,-0.0218 0.0729,-0.0304 0.10129,-0.0279 0.09,0.008 0.11808,0.11696 -0.003,0.19121 -0.0254,0.0155 -0.0513,0.0297 -0.076,0.0465 -0.01,0.007 -0.029,0.0202 -0.0439,0.0326 0,0 0,5.3e-4 0,5.3e-4 -0.0121,0.0177 -0.0234,0.036 -0.0362,0.0532 -0.0164,0.0219 -0.0326,0.0441 -0.0512,0.0641 -0.024,0.0258 -0.0883,0.0705 -0.10697,0.10232 -0.0606,0.10279 -0.15202,0.0863 -0.18138,0.0238 -0.0773,0.009 -0.15463,0.0188 -0.23255,0.0238 v 0.0207 c 0.30397,0.0234 0.24831,0.0129 0.20154,0.25528 -0.0329,0.17039 -0.11316,0.26729 -0.20154,0.31109 v 5.21312 H 145.433 v -9.9565 z m 0.55862,3.72897 c -0.004,-2.7e-4 -0.007,0.002 -0.0108,0.002 -0.004,0.004 -0.0111,0.0112 -0.0145,0.015 0.0342,0.0253 0.0471,0.0886 0.0708,0.13281 0.0178,-0.0353 0.0171,-0.0905 -0.001,-0.12196 -0.0109,-0.0188 -0.0271,-0.0266 -0.0444,-0.0279 z m -0.27285,0.0951 c -0.003,7.9e-4 -0.004,7.9e-4 -0.007,0.002 0.002,-2.7e-4 0.004,-8e-4 0.006,-0.001 z m -0.007,0.002 c -0.0293,0.005 -0.0586,0.01 -0.0879,0.015 l -0.007,0.007 c 0.0352,-0.008 0.0555,-0.0123 0.0946,-0.0222 z"
         style="fill:#ff0000;fill-opacity:1;fill-rule:nonzero;stroke:none;stroke-width:0.264583"
         id="path305" />
    </clipPath>
    <clipPath
       id="clipPath431"
       clipPathUnits="userSpaceOnUse">
      <path
         d="m 146.39261,162.75337 -17.22169,5.3e-4 v 3.63285 c 0.0267,-0.0279 0.0552,-0.0533 0.093,-0.0723 0.0177,-0.009 0.0372,-0.0131 0.0558,-0.0202 -0.002,0.002 -0.008,0.009 -0.005,0.008 0.0111,-0.005 0.0212,-0.0113 0.0315,-0.0176 0.009,-0.011 0.0158,-0.023 0.0253,-0.0331 2.6e-4,-2.7e-4 7.9e-4,-2.1e-4 0.001,-5.3e-4 0.0362,-0.0771 0.0736,-0.15762 0.0739,-0.15813 h 5.3e-4 c 0.0303,-0.0643 0.0729,-0.0921 0.11059,-0.093 0.041,-0.001 0.073,0.032 0.078,0.0837 0.035,-0.008 0.0738,-0.0125 0.11885,-0.015 0.036,-0.002 0.0723,-5.3e-4 0.10852,0 0.0216,-0.0181 0.0437,-0.0287 0.0646,-0.0289 0.0327,-5.3e-4 0.0597,0.0199 0.0718,0.0537 0.11875,0.0543 0.11132,0.18728 -0.0227,0.22996 0.002,0.0474 -0.0244,0.10331 -0.0971,0.15348 -0.0911,0.0627 -0.13537,0.13948 -0.17777,0.23668 -0.0117,0.0269 -0.0184,0.0622 -0.0357,0.0868 -0.0148,0.0211 -0.0337,0.039 -0.0506,0.0584 -0.13783,0.0406 -0.0747,0.0437 -0.18862,0.0103 -0.0104,-0.003 -0.0111,-0.007 -0.0186,-0.01 -0.0125,0.0206 -0.0257,0.0406 -0.046,0.0558 -0.0571,0.0428 -0.12445,0.0562 -0.19172,0.0724 v 5.72264 h 17.22221 z m -16.78295,3.89382 c -0.0176,0.0199 -0.0354,0.0377 -0.0568,0.0548 0.0382,-0.0203 0.0732,-0.0404 0.0574,-0.0548 -6e-5,-6e-5 -5.3e-4,6e-5 -5.3e-4,0 z m -0.43874,0.13229 v 0.0109 c 0.002,-2.6e-4 0.003,-5.3e-4 0.005,-0.001 -0.001,-0.002 -0.002,-0.005 -0.003,-0.007 -8e-4,-7.9e-4 -0.001,-0.002 -0.002,-0.003 z"
         style="fill:#ff0000;fill-opacity:1;fill-rule:nonzero;stroke:none;stroke-width:0.264583"
         id="path433" />
    </clipPath>
    <clipPath
       id="clipPath465"
       clipPathUnits="userSpaceOnUse">
      <path
         d="m 63.143432,125.01562 v 49.14481 h 84.419138 v -0.91364 c -0.0506,0.009 -0.10738,-0.0331 -0.11214,-0.13333 -0.002,-0.0354 -0.0123,-0.0707 0,-0.10593 -0.008,-0.003 -0.0169,-0.006 -0.0253,-0.009 -0.004,-0.0424 -0.009,-0.0847 -0.0124,-0.12712 -7.9e-4,0.002 -7.9e-4,0.004 -0.002,0.006 -0.003,0.007 0,-0.0147 0,-0.0217 -2.6e-4,-0.007 -0.002,-0.0141 -0.002,-0.0212 0,-7.9e-4 0.002,-5.3e-4 0.002,-0.002 v -0.0956 c 0,-0.0947 0.0477,-0.14211 0.0956,-0.14211 0.02,0 0.0392,0.0104 0.0558,0.0269 v -47.60634 z m 66.390258,4.6421 c 0.26069,-0.01 0.38407,0.27781 0.0667,0.524 -0.25631,0.19863 -0.50134,0.4106 -0.74414,0.62528 -0.16667,0.14739 -0.11733,0.0833 -0.19171,0.19637 -0.0654,0.11325 -0.0227,0.0427 -0.14677,0.13694 -0.008,0.0123 -0.0135,0.0257 -0.0238,0.0357 -0.0112,0.011 -0.0554,0.0272 -0.0434,0.0171 0.0322,-0.0274 0.0464,-0.0369 0.0672,-0.0527 0.008,-0.0137 0.018,-0.0261 0.0269,-0.0393 0.29958,-0.44438 -0.76051,0.32434 -0.51883,-0.154 0.0527,-0.10424 0.0745,-0.18347 0.18758,-0.23874 0.007,-0.0106 0.0134,-0.0217 0.0202,-0.0326 0.0354,-0.044 0.0673,-0.0917 0.10645,-0.13229 0.0503,-0.0521 0.10703,-0.0973 0.16123,-0.14521 0.2406,-0.21274 0.4829,-0.42341 0.73742,-0.6196 0.10611,-0.0818 0.20818,-0.11771 0.29507,-0.12092 z m -0.0367,12.09797 c 0.17816,0.0229 0.27887,0.24712 0.0847,0.52038 -0.0881,0.12427 -0.18056,0.24569 -0.26406,0.3731 -0.0626,0.0954 -0.11635,0.19645 -0.17467,0.29456 -2e-5,0.006 -7.9e-4,0.012 -5.3e-4,0.017 0.0108,0.14634 -0.0378,0.30719 -0.17363,0.39119 -0.0662,0.041 -0.15348,0.0228 -0.23048,0.0341 -0.0384,-0.0123 -0.0768,-0.0249 -0.11524,-0.0372 -0.17853,-0.0573 -0.13596,-0.12902 -0.0341,-0.20051 -0.22291,-0.17063 -0.0182,-0.37635 0.0703,-0.49092 0.007,0.002 0.0139,0.003 0.0207,0.005 0.27618,-0.45555 0.0906,-0.17911 0.45888,-0.69866 v 0.001 c 0.11624,-0.16396 0.25123,-0.22306 0.35812,-0.20929 z m -0.69763,1.0914 v 5.3e-4 c -0.17695,0.0687 -0.10257,0.0226 -0.18448,0.16537 0.001,0.002 0.003,0.003 0.004,0.004 0.0558,0.005 0.11165,0.0101 0.16744,0.015 0.16318,-0.086 0.29262,-0.15812 0.0501,-0.18087 -0.0125,-0.002 -0.0248,-0.003 -0.0372,-0.004 z m 0.40928,11.4639 h 5.3e-4 l 5.3e-4,5.3e-4 c 0.20065,0.0272 0.29036,0.26149 0.0388,0.50695 -0.0609,0.0594 -0.26043,0.25489 -0.40773,0.40566 0.0379,-0.0218 0.0729,-0.0304 0.10128,-0.0279 0.09,0.008 0.11758,0.11696 -0.003,0.19121 -0.0254,0.0155 -0.0513,0.0297 -0.076,0.0465 -0.01,0.007 -0.029,0.0202 -0.0439,0.0326 v 5.3e-4 c -0.0121,0.0177 -0.0234,0.036 -0.0362,0.0532 -0.0164,0.0219 -0.0326,0.0441 -0.0512,0.0641 -0.024,0.0258 -0.0883,0.0705 -0.10698,0.10232 -0.0598,0.10142 -0.14973,0.0868 -0.18035,0.0264 -0.086,0.0102 -0.1723,0.017 -0.25889,0.0227 -0.003,0.005 -0.004,0.0115 -0.007,0.0165 0.34238,0.0271 0.28196,0.007 0.23357,0.25787 -0.0853,0.44155 -0.48139,0.43015 -0.53795,0.10645 -0.004,0.004 -0.01,0.009 -0.0124,0.0124 -2.6e-4,0.005 5.3e-4,0.01 0,0.0145 -5.3e-4,0.006 -0.021,0.0116 -0.0176,0.005 0.003,-0.005 0.0131,-0.0141 0.0176,-0.0196 0.004,-0.0642 0.002,-0.12889 0.003,-0.19327 0.008,-0.53586 -0.43985,0.78234 -0.48162,0.24805 -0.007,-0.0842 -0.0314,-0.1691 -0.0196,-0.2527 0.019,-0.13418 0.16575,-0.23335 0.25115,-0.32246 0.0206,-0.0207 0.0464,-0.0372 0.062,-0.062 0.19351,-0.30678 -0.20832,0.18698 0.14366,-0.29973 0.0523,-0.0723 0.12032,-0.13217 0.18242,-0.19637 0.26484,-0.2738 0.27641,-0.27626 0.56741,-0.54467 l 5.3e-4,-5.3e-4 c 0.0985,-0.0908 0.19677,-0.13482 0.28215,-0.14469 0.0414,-0.005 0.078,7.9e-4 0.11214,0.0109 0.0525,-0.03 0.1041,-0.0508 0.15192,-0.0584 0.0317,-0.005 0.0637,-0.005 0.092,-0.002 z m -0.43925,0.99581 c -0.004,-2.7e-4 -0.007,0.002 -0.0108,0.002 -0.004,0.004 -0.0111,0.0112 -0.0145,0.015 0.0342,0.0253 0.0471,0.0886 0.0708,0.13281 0.0178,-0.0353 0.0171,-0.0905 -0.001,-0.12196 -0.0109,-0.0188 -0.0271,-0.0266 -0.0444,-0.0279 z m -0.27285,0.0951 c -0.003,7.9e-4 -0.004,7.9e-4 -0.007,0.002 0.002,-2.7e-4 0.004,-8e-4 0.006,-0.001 z m -0.007,0.002 -0.0879,0.015 -0.007,0.007 c 0.0352,-0.008 0.0555,-0.0118 0.0946,-0.0217 z m 1.06867,10.59625 c 0.041,-0.001 0.073,0.032 0.078,0.0837 0.035,-0.008 0.0738,-0.0125 0.11886,-0.015 0.036,-0.002 0.0723,-5.3e-4 0.10852,0 0.0215,-0.018 0.0438,-0.0286 0.0646,-0.0289 0.0327,-5.3e-4 0.0603,0.0199 0.0723,0.0537 0.11835,0.0545 0.11032,0.18681 -0.0238,0.22945 0.002,0.0474 -0.0245,0.10331 -0.0971,0.15347 -0.0911,0.0627 -0.13537,0.13948 -0.17777,0.23668 -0.0117,0.0269 -0.0184,0.0622 -0.0357,0.0868 -0.0148,0.0211 -0.0337,0.039 -0.0506,0.0584 -0.13782,0.0406 -0.0747,0.0436 -0.18861,0.0104 -0.01,-0.003 -0.0103,-0.006 -0.0176,-0.009 -0.0126,0.0207 -0.0262,0.04 -0.0465,0.0553 -0.0592,0.0444 -0.12926,0.0575 -0.19896,0.0744 -0.0766,0.018 -0.0517,0.008 -0.10904,0.0315 -0.007,0.003 -0.0262,0.016 -0.0222,0.009 0.0642,-0.10125 0.0667,-0.0248 0.0481,-0.11472 -0.0385,-0.18555 -0.0685,0.29634 -0.14624,0.1235 -0.0117,-0.026 -0.0386,-0.0497 -0.0346,-0.078 0.016,-0.1255 0.12401,-0.13494 0.21911,-0.15813 0.019,-0.004 0.0383,-0.009 0.0574,-0.0139 -0.002,-0.006 -0.005,-0.007 -0.008,-0.0124 -0.007,-0.007 -0.0144,-0.0125 -0.0207,-0.0217 -0.007,0.002 -0.0148,0.0113 -0.0238,0.0367 -0.002,0.003 -0.005,0.0124 -0.004,0.01 0.0201,-0.0447 -0.008,0.008 0.0186,-0.0651 -0.0105,-0.0182 -0.0211,-0.0364 -0.0289,-0.0605 -0.0299,-0.0921 -0.0305,-0.14305 0.0139,-0.23565 0.0409,-0.052 0.08,-0.0952 0.14056,-0.12557 0.0177,-0.009 0.0372,-0.013 0.0558,-0.0202 -0.002,0.002 -0.008,0.009 -0.005,0.008 0.0111,-0.005 0.0207,-0.0112 0.031,-0.0176 0.009,-0.011 0.0158,-0.023 0.0253,-0.0331 8e-4,-8e-4 0.001,-0.001 0.002,-0.002 0.0358,-0.0762 0.0731,-0.15555 0.0734,-0.15606 h 5.3e-4 c 0.0303,-0.0643 0.073,-0.0921 0.11059,-0.093 z m -0.0935,0.52606 c -5.3e-4,1.4e-4 -8e-4,2.6e-4 -0.002,5.3e-4 -1.1e-4,5.3e-4 1.2e-4,5.3e-4 0,0.001 z m 0.14624,0.12144 c -0.0169,0.0192 -0.0356,0.0368 -0.0553,0.0527 0.0363,-0.0195 0.0698,-0.0387 0.0553,-0.0527 z"
         style="fill:#ff0000;fill-opacity:1;fill-rule:nonzero;stroke:none;stroke-width:0.264583"
         id="path467" />
    </clipPath>
    <clipPath
       id="clipPath475"
       clipPathUnits="userSpaceOnUse">
      <path
         d="m 63.215326,106.97327 0.06101,84.41773 84.303694,-0.54109 -0.0136,-18.7936 c -0.005,-0.002 -0.009,-0.003 -0.0139,-0.005 -0.004,-0.0424 -0.009,-0.0846 -0.0125,-0.12705 -8e-4,0.002 -7.9e-4,0.004 -0.002,0.006 -0.003,0.007 -1e-5,-0.0147 -1e-5,-0.0217 -2.7e-4,-0.007 -0.002,-0.0141 -0.002,-0.0212 0,-8e-4 0.002,-5.4e-4 0.002,-0.002 l -7e-5,-0.0956 c -3e-5,-0.0452 0.0113,-0.0788 0.0278,-0.1025 l -0.0472,-65.25564 z m 66.414144,21.85248 c 0.26068,-0.0113 0.38495,0.27531 0.067,0.52357 -0.2562,0.20025 -0.50106,0.41382 -0.7437,0.63005 -0.16658,0.14846 -0.11726,0.0841 -0.19158,0.1976 -0.0653,0.11368 -0.0226,0.0428 -0.14667,0.13789 -0.008,0.0123 -0.0136,0.0257 -0.0237,0.0358 -0.0112,0.0111 -0.0554,0.0276 -0.0434,0.0173 0.0322,-0.0276 0.0465,-0.0372 0.0671,-0.0531 0.008,-0.0137 0.0179,-0.0262 0.0268,-0.0395 0.29926,-0.4463 -0.76029,0.32923 -0.51895,-0.15066 0.0526,-0.10458 0.0744,-0.18396 0.18742,-0.23995 0.007,-0.0106 0.0133,-0.0218 0.0201,-0.0327 0.0354,-0.0442 0.0672,-0.0921 0.10636,-0.13297 0.0503,-0.0524 0.10697,-0.098 0.16113,-0.14625 0.24045,-0.21428 0.4826,-0.4265 0.73699,-0.62433 0.10605,-0.0825 0.20809,-0.11904 0.29499,-0.12281 z m -0.028,12.09815 c 0.17817,0.0218 0.27886,0.24535 0.0851,0.51983 -0.088,0.12484 -0.18041,0.24685 -0.26379,0.3748 -0.0625,0.0958 -0.11621,0.1972 -0.17446,0.29568 -2e-5,0.005 -7.9e-4,0.012 -5.2e-4,0.017 0.0109,0.14627 -0.0376,0.30743 -0.17335,0.3923 -0.0661,0.0414 -0.15346,0.0238 -0.23046,0.0356 -0.0385,-0.0121 -0.0769,-0.0244 -0.11526,-0.0365 -0.17858,-0.0562 -0.13574,-0.12814 -0.0343,-0.20028 -0.22304,-0.1692 -0.0185,-0.37623 0.0699,-0.49138 0.007,0.002 0.0139,0.003 0.0207,0.005 0.27585,-0.45733 0.0904,-0.1797 0.45838,-0.70161 v 0.001 c 0.11612,-0.1647 0.25107,-0.22467 0.35798,-0.21159 z m -0.69686,1.09639 c -0.17689,0.0699 -0.10255,0.0233 -0.18436,0.16655 0.001,0.002 0.003,0.003 0.004,0.004 0.0558,0.005 0.11165,0.009 0.16744,0.0139 0.16313,-0.087 0.29236,-0.16 0.05,-0.18118 -0.0125,-0.002 -0.0248,-0.002 -0.0372,-0.003 z m 0.41809,11.46122 h 5.3e-4 c 0.20066,0.0259 0.29097,0.25963 0.0391,0.50669 -0.0609,0.0598 -0.26079,0.25658 -0.40796,0.40828 0.0381,-0.0222 0.0733,-0.0309 0.10178,-0.0285 0.09,0.007 0.11837,0.11619 -0.003,0.19122 -0.0254,0.0157 -0.0512,0.03 -0.0759,0.047 -0.01,0.007 -0.0289,0.0203 -0.0439,0.0328 v 5.3e-4 c -0.0121,0.0178 -0.0233,0.0362 -0.0361,0.0535 -0.0164,0.022 -0.0325,0.0443 -0.0511,0.0644 -0.024,0.026 -0.0882,0.0711 -0.1069,0.10301 -0.0598,0.1018 -0.1497,0.0878 -0.18033,0.0275 -0.086,0.0108 -0.17229,0.0181 -0.25889,0.0244 -0.003,0.005 -0.004,0.0114 -0.007,0.0166 0.34243,0.0249 0.28198,0.005 0.23377,0.25637 -0.0849,0.4421 -0.48109,0.4332 -0.53788,0.10991 -0.004,0.004 -0.009,0.009 -0.0119,0.0125 -2.6e-4,0.005 5.3e-4,0.01 1e-5,0.0145 -5.3e-4,0.006 -0.021,0.0124 -0.0176,0.005 0.003,-0.005 0.0132,-0.0142 0.0176,-0.0198 0.004,-0.0642 0.002,-0.1289 0.003,-0.19329 0.008,-0.53591 -0.43926,0.78516 -0.48145,0.25114 -0.007,-0.0842 -0.0316,-0.1689 -0.0198,-0.25257 0.0189,-0.1343 0.16558,-0.23442 0.25092,-0.32407 0.0206,-0.0208 0.0474,-0.0375 0.063,-0.0624 0.19329,-0.30802 -0.20819,0.18833 0.14344,-0.30064 0.0523,-0.0727 0.12023,-0.13294 0.18228,-0.19754 0.26464,-0.2755 0.27622,-0.27803 0.56702,-0.54831 l 5.3e-4,-5.4e-4 c 0.0984,-0.0915 0.19667,-0.13609 0.28205,-0.1465 0.0414,-0.005 0.078,2.9e-4 0.11215,0.0101 0.0525,-0.0304 0.10407,-0.0515 0.15189,-0.0594 0.0321,-0.005 0.0625,-0.006 0.0909,-0.002 z m -0.43905,0.99811 c -0.004,-2.4e-4 -0.007,0.002 -0.0109,0.002 -0.004,0.004 -0.0111,0.0113 -0.0145,0.0151 0.0342,0.0251 0.0472,0.0883 0.0709,0.13235 0.0178,-0.0354 0.0166,-0.0906 -0.001,-0.12195 -0.0109,-0.0187 -0.0271,-0.0264 -0.0445,-0.0276 z m -0.28467,0.0995 c -0.0277,0.005 -0.0554,0.01 -0.0832,0.0145 l -0.007,0.007 c 0.0336,-0.008 0.0546,-0.0106 0.0904,-0.0197 z m 1.08047,10.5888 5.3e-4,-1e-5 c 0.041,-0.001 0.073,0.0316 0.0781,0.0832 0.035,-0.008 0.0738,-0.0129 0.11884,-0.0157 0.0359,-0.002 0.072,-9.9e-4 0.10801,-6.9e-4 0.0218,-0.0185 0.0441,-0.0294 0.0651,-0.0299 v 5.2e-4 c 0.0327,-4.5e-4 0.0598,0.0195 0.0719,0.0533 0.11892,0.0536 0.11136,0.1867 -0.0231,0.23011 0.002,0.0473 -0.0245,0.10313 -0.097,0.15358 -0.091,0.0633 -0.13527,0.14035 -0.1776,0.23782 -0.0117,0.027 -0.0183,0.0623 -0.0356,0.087 -0.0148,0.0212 -0.0337,0.0392 -0.0506,0.0587 -0.13779,0.0415 -0.0747,0.0442 -0.18861,0.0116 -0.01,-0.003 -0.0103,-0.006 -0.0176,-0.009 -0.0126,0.0208 -0.0261,0.0407 -0.0465,0.0561 -0.0592,0.0448 -0.12922,0.0583 -0.19891,0.0757 -0.0766,0.0185 -0.0517,0.009 -0.10902,0.0322 -0.007,0.003 -0.0262,0.0161 -0.0222,0.009 0.0641,-0.10166 0.0666,-0.0252 0.048,-0.11503 -0.0386,-0.18529 -0.0683,0.29679 -0.14616,0.12444 -0.0117,-0.0259 -0.0392,-0.0495 -0.0352,-0.0778 0.0159,-0.1256 0.12391,-0.13574 0.21899,-0.15954 0.0191,-0.005 0.0384,-0.008 0.0574,-0.0138 -0.002,-0.006 -0.005,-0.007 -0.008,-0.0129 -0.007,-0.007 -0.0149,-0.0124 -0.0212,-0.0216 -0.007,0.002 -0.0142,0.0106 -0.0232,0.0358 -0.002,0.003 -0.005,0.0133 -0.004,0.0104 0.0201,-0.0448 -0.008,0.008 0.0186,-0.0652 -0.0104,-0.018 -0.0207,-0.036 -0.0285,-0.0598 -0.03,-0.0919 -0.0307,-0.14285 0.0138,-0.23574 0.0408,-0.0523 0.0799,-0.0957 0.14047,-0.12647 0.0177,-0.009 0.0372,-0.0134 0.0558,-0.0205 -0.002,0.002 -0.008,0.009 -0.005,0.008 0.0111,-0.005 0.0212,-0.0114 0.0315,-0.0178 0.009,-0.011 0.0158,-0.0231 0.0253,-0.0332 2.6e-4,-2.7e-4 7.9e-4,-2e-4 0.001,-5.4e-4 0.0362,-0.0773 0.0735,-0.15808 0.0738,-0.1586 h 5.3e-4 c 0.0303,-0.0644 0.0729,-0.0925 0.11052,-0.0937 z m 0.0532,0.64716 c -0.0169,0.0193 -0.035,0.0371 -0.0547,0.0531 0.0363,-0.0198 0.0693,-0.0392 0.0547,-0.0531 z"
         style="fill:#ff0000;fill-opacity:1;fill-rule:nonzero;stroke:none;stroke-width:0.264585"
         id="path477" />
    </clipPath>
  </defs>
  <sodipodi:namedview
     id="base"
     pagecolor="#ffffff"
     bordercolor="#666666"
     borderopacity="1.0"
     inkscape:pageopacity="0.0"
     inkscape:pageshadow="2"
     inkscape:zoom="0.61091085"
     inkscape:cx="694.42649"
     inkscape:cy="305.7094"
     inkscape:document-units="mm"
     inkscape:current-layer="layer1"
     inkscape:document-rotation="0"
     showgrid="false"
     inkscape:snap-bbox="true"
     inkscape:bbox-paths="false"
     inkscape:window-width="1364"
     inkscape:window-height="704"
     inkscape:window-x="0"
     inkscape:window-y="0"
     inkscape:window-maximized="0"
     inkscape:snap-bbox-midpoints="true"
     inkscape:snap-bbox-edge-midpoints="false"
     inkscape:bbox-nodes="true"
     inkscape:snap-smooth-nodes="true"
     inkscape:snap-midpoints="true"
     inkscape:snap-nodes="false" />
  <metadata
     id="metadata5">
    <rdf:RDF>
      <cc:Work
         rdf:about="">
        <dc:format>image/svg+xml</dc:format>
        <dc:type
           rdf:resource="http://purl.org/dc/dcmitype/StillImage" />
        <dc:title />
      </cc:Work>
    </rdf:RDF>
  </metadata>
  <g
     transform="translate(-52.475975,-105.62352)"
     inkscape:label="Capa 1"
     inkscape:groupmode="layer"
     id="layer1">
    <rect
       inkscape:export-ydpi="96"
       inkscape:export-xdpi="96"
       ry="11.817391"
       y="105.62352"
       x="52.475975"
       height="94.335358"
       width="104.91581"
       id="rect501"
       style="fill:#a12325;fill-opacity:1;fill-rule:evenodd;stroke-width:0.255863" />
    <rect
       inkscape:export-ydpi="96"
       inkscape:export-xdpi="96"
       clip-path="url(#clipPath475)"
       style="opacity:1;fill:#ffffff;fill-opacity:1;stroke:#5e5e5e;stroke-width:1.00154;stroke-linecap:round;stroke-linejoin:round;stroke-miterlimit:4;stroke-dasharray:none;stroke-opacity:1;paint-order:markers fill stroke"
       id="rect885"
       width="83.255348"
       height="82.998482"
       x="63.77"
       y="107.41238"
       transform="matrix(0.9999794,0.00641832,-7.2270435e-4,0.99999974,-0.35400563,3.2032095)"
       ry="9.0722694" />
    <path
       inkscape:export-ydpi="96"
       inkscape:export-xdpi="96"
       clip-path="url(#clipPath465)"
       style="fill:url(#pattern1948);stroke:none;stroke-width:0.265;stroke-miterlimit:4;stroke-dasharray:none"
       d="m 63.143632,125.44598 84.170248,-0.43012 0.24894,48.71426 -84.170253,0.43012 z"
       id="rect985" />
    <rect
       style="opacity:0;fill:#0000ff;fill-opacity:1;fill-rule:evenodd;stroke:#000000;stroke-width:0.265;stroke-linecap:round;stroke-linejoin:round;stroke-miterlimit:4;stroke-dasharray:none;stroke-opacity:1"
       id="rect14"
       width="120.54184"
       height="100.27827"
       x="51.945496"
       y="16.068316" />
    <rect
       style="opacity:0;fill:#0000ff;fill-opacity:1;stroke:#000000;stroke-width:0.264999;stroke-linecap:round;stroke-linejoin:round;stroke-miterlimit:4;stroke-dasharray:none;stroke-opacity:1"
       id="rect877"
       width="114.32807"
       height="103.26653"
       x="51.945496"
       y="16.068316" />
    <rect
       style="opacity:0;fill:#0000ff;fill-opacity:1;stroke:#000000;stroke-width:0.264999;stroke-linecap:round;stroke-linejoin:round;stroke-miterlimit:4;stroke-dasharray:none;stroke-opacity:1"
       id="rect879"
       width="65.708611"
       height="69.105896"
       x="63.864902"
       y="18.854719" />
    <rect
       style="opacity:0;fill:#0000ff;fill-opacity:1;stroke:#000000;stroke-width:0.264999;stroke-linecap:round;stroke-linejoin:round;stroke-miterlimit:4;stroke-dasharray:none;stroke-opacity:1"
       id="rect881"
       width="116.38932"
       height="78.896416"
       x="63.269371"
       y="40.373291"
       sodipodi:insensitive="true" />
    <rect
       style="opacity:0;fill:#0000ff;fill-opacity:1;stroke:#000000;stroke-width:0.264999;stroke-linecap:round;stroke-linejoin:round;stroke-miterlimit:4;stroke-dasharray:none;stroke-opacity:1"
       id="rect883"
       width="86.825188"
       height="87.024918"
       x="46.119282"
       y="31.886925"
       ry="0" />
    <text
       inkscape:export-ydpi="96"
       inkscape:export-xdpi="96"
       xml:space="preserve"
       style="font-style:normal;font-weight:normal;font-size:10.5833px;line-height:1.25;font-family:sans-serif;fill:#5e5e5e;fill-opacity:1;stroke:none;stroke-width:0.264583"
       x="76.6353"
       y="187.00677"
       id="text920"><tspan
         sodipodi:role="line"
         id="tspan918"
         x="76.6353"
         y="187.00677"
         style="fill:#5e5e5e;fill-opacity:1;stroke-width:0.264583">Workshops</tspan></text>
    <path
       inkscape:export-ydpi="96"
       inkscape:export-xdpi="96"
       clip-path="url(#clipPath175)"
       stroke="none"
       fill="url(#linear-gradient)"
       fill-opacity="1"
       d="m 134.71199,136.37801 -5.51334,-5.88908 c -0.33123,-0.29057 0,0 0,0 v 0 c 0.33123,-0.29061 -1.28981,-0.0619 0,0 l 5.95958,3.45067 10.5077,-7.17124 c 0.33123,-0.29059 0,0 0,0 v 0 c 0.33124,0.29058 0.33124,-0.29062 0,0 l -9.75438,9.60967 c -0.33127,0.29059 -0.86832,0.29059 -1.19956,-2e-5 z"
       id="Path"
       style="fill:#00df2c;fill-opacity:1;stroke-width:0.0310335"
       sodipodi:nodetypes="ccsccccscccc" />
    <path
       inkscape:export-ydpi="96"
       inkscape:export-xdpi="96"
       clip-path="url(#clipPath207)"
       sodipodi:nodetypes="ccsccccscccc"
       style="fill:#00df2c;fill-opacity:1;stroke-width:0.0310335"
       id="Path-1"
       d="m 134.71199,148.7168 -5.51334,-5.88908 c -0.33123,-0.29057 0,0 0,0 v 0 c 0.33123,-0.29061 -1.28981,-0.0619 0,0 l 5.95958,3.45067 10.5077,-7.17124 c 0.33123,-0.29059 0,0 0,0 v 0 c 0.33124,0.29058 0.33124,-0.29062 0,0 l -9.75438,9.60967 c -0.33127,0.29059 -0.86832,0.29059 -1.19956,-2e-5 z"
       fill-opacity="1"
       fill="url(#linear-gradient)"
       stroke="none" />
    <path
       inkscape:export-ydpi="96"
       inkscape:export-xdpi="96"
       clip-path="url(#clipPath303)"
       sodipodi:nodetypes="ccsccccscccc"
       style="fill:#00df2c;fill-opacity:1;stroke-width:0.0310335"
       id="Path-16"
       d="m 134.23059,161.31662 -5.51334,-5.88908 c -0.33123,-0.29057 0,0 0,0 v 0 c 0.33123,-0.29061 -1.28981,-0.0619 0,0 l 5.95958,3.45067 10.5077,-7.17124 c 0.33123,-0.29059 0,0 0,0 v 0 c 0.33124,0.29058 0.33124,-0.29062 0,0 l -9.75438,9.60967 c -0.33127,0.29059 -0.86832,0.29059 -1.19956,-2e-5 z"
       fill-opacity="1"
       fill="url(#linear-gradient)"
       stroke="none" />
    <path
       inkscape:export-ydpi="96"
       inkscape:export-xdpi="96"
       clip-path="url(#clipPath431)"
       sodipodi:nodetypes="ccsccccscccc"
       style="fill:#00df2c;fill-opacity:1;stroke-width:0.0310335"
       id="Path-9"
       d="m 135.19069,172.49259 -5.51334,-5.88908 c -0.33123,-0.29057 0,0 0,0 v 0 c 0.33123,-0.29061 -1.28981,-0.0619 0,0 l 5.95958,3.45067 10.5077,-7.17124 c 0.33123,-0.29059 0,0 0,0 v 0 c 0.33124,0.29058 0.33124,-0.29062 0,0 l -9.75438,9.60967 c -0.33127,0.29059 -0.86832,0.29059 -1.19956,-2e-5 z"
       fill-opacity="1"
       fill="url(#linear-gradient)"
       stroke="none" />
    <g
       inkscape:export-ydpi="96"
       inkscape:export-xdpi="96"
       transform="matrix(0.51567401,0,0,0.55660473,65.252149,-448.12259)"
       id="layer1-4"
       inkscape:label="Layer 1"
       style="fill:#5e5e5e;fill-opacity:1">
      <ellipse
         ry="5.2232146"
         rx="5.6026783"
         cy="1038.4336"
         cx="9.8214293"
         id="path23943"
         style="opacity:0.98;fill:#5e5e5e;fill-opacity:1" />
      <ellipse
         ry="2.6339285"
         rx="9.0625"
         cy="1048.1658"
         cx="9.8214293"
         id="path23947"
         style="opacity:0.98;fill:#5e5e5e;fill-opacity:1" />
    </g>
    <g
       inkscape:export-ydpi="96"
       inkscape:export-xdpi="96"
       style="fill:#5e5e5e;fill-opacity:1"
       inkscape:label="Layer 1"
       id="layer1-4-2"
       transform="matrix(0.515674,0,0,0.55660473,64.891302,-435.67795)">
      <ellipse
         style="opacity:0.98;fill:#5e5e5e;fill-opacity:1"
         id="path23943-5"
         cx="9.8214293"
         cy="1038.4336"
         rx="5.6026783"
         ry="5.2232146" />
      <ellipse
         style="opacity:0.98;fill:#5e5e5e;fill-opacity:1"
         id="path23947-5"
         cx="9.8214293"
         cy="1048.1658"
         rx="9.0625"
         ry="2.6339285" />
    </g>
    <g
       inkscape:export-ydpi="96"
       inkscape:export-xdpi="96"
       style="fill:#5e5e5e;fill-opacity:1"
       inkscape:label="Layer 1"
       id="layer1-4-9"
       transform="matrix(0.515674,0,0,0.55660473,64.837139,-423.2855)">
      <ellipse
         style="opacity:0.98;fill:#5e5e5e;fill-opacity:1"
         id="path23943-9"
         cx="9.8214293"
         cy="1038.4336"
         rx="5.6026783"
         ry="5.2232146" />
      <ellipse
         style="opacity:0.98;fill:#5e5e5e;fill-opacity:1"
         id="path23947-57"
         cx="9.8214293"
         cy="1048.1658"
         rx="9.0625"
         ry="2.6339285" />
    </g>
    <g
       inkscape:export-ydpi="96"
       inkscape:export-xdpi="96"
       style="fill:#5e5e5e;fill-opacity:1"
       inkscape:label="Layer 1"
       id="layer1-4-6"
       transform="matrix(0.51392051,0,0,0.48287707,64.884177,-335.09397)">
      <ellipse
         style="opacity:0.98;fill:#5e5e5e;fill-opacity:1"
         id="path23943-1"
         cx="9.8214293"
         cy="1038.4336"
         rx="5.6026783"
         ry="5.2232146" />
      <ellipse
         style="opacity:0.98;fill:#5e5e5e;fill-opacity:1"
         id="path23947-3"
         cx="9.8214293"
         cy="1048.1658"
         rx="9.0625"
         ry="2.6339285" />
    </g>
    <path
       inkscape:export-ydpi="96"
       inkscape:export-xdpi="96"
       transform="scale(0.26458333)"
       id="path2331"
       d="m 484.81309,553.7625 c -0.14448,-0.0917 -0.20726,-0.31114 -0.13951,-0.4877 0.0677,-0.17656 0.0248,-0.3818 -0.0954,-0.45609 -0.32001,-0.19778 -0.26746,-0.59281 0.13951,-1.0488 0.19694,-0.22066 0.81162,-1.07605 1.36594,-1.90086 1.0139,-1.50865 1.66126,-2.0254 2.25289,-1.79837 0.57225,0.21959 0.34021,1.11503 -0.7031,2.71321 -0.56268,0.86194 -1.02306,1.77128 -1.02306,2.02074 0,0.83724 -1.08015,1.41291 -1.79729,0.95787 z m 1.18174,-1.25394 c 0.2328,-0.14719 0.24849,-0.24968 0.0661,-0.43204 -0.31412,-0.31411 -1.2921,-0.0657 -1.2921,0.32824 0,0.34191 0.74902,0.40533 1.22596,0.1038 z"
       style="fill:#ffffff;fill-opacity:1;stroke-width:0.204613" />
    <path
       inkscape:export-ydpi="96"
       inkscape:export-xdpi="96"
       transform="scale(0.26458333)"
       id="path2333"
       d="m 484.92527,553.78334 c -0.23062,-0.12598 -0.26055,-0.20211 -0.22066,-0.56127 0.0301,-0.27129 0.0237,-0.2934 -0.12628,-0.43603 -0.11578,-0.11007 -0.15803,-0.19645 -0.15803,-0.32307 0,-0.2229 0.0416,-0.29868 0.48463,-0.88224 0.2029,-0.26728 0.60726,-0.83124 0.89858,-1.25325 0.73721,-1.06794 1.0653,-1.49255 1.38891,-1.7975 0.32842,-0.30948 0.63653,-0.47889 0.8705,-0.47863 0.22709,2.6e-4 0.48983,0.16857 0.53326,0.3416 0.0929,0.36997 -0.26774,1.23311 -1.00052,2.3949 -0.5674,0.89958 -0.9672,1.71437 -1.02758,2.09418 -0.0544,0.3422 -0.21253,0.57677 -0.54959,0.81527 -0.28044,0.19844 -0.81101,0.2402 -1.09322,0.086 z m 0.8263,-1.13483 c 0.1057,-0.0317 0.25574,-0.10825 0.33341,-0.17018 0.114,-0.0909 0.13463,-0.13882 0.10705,-0.24869 -0.0514,-0.2047 -0.24948,-0.30789 -0.59106,-0.30789 -0.3813,0 -0.73466,0.16281 -0.82459,0.37992 -0.10134,0.24465 0.0114,0.28877 0.15901,0.0622 0.16221,-0.24888 0.49288,-0.36265 0.85204,-0.29317 0.34079,0.0659 0.34184,0.17218 0.004,0.38436 -0.18227,0.11442 -0.36338,0.18099 -0.55249,0.20308 l -0.28135,0.0329 0.30099,0.008 c 0.16554,0.004 0.38747,-0.0184 0.49318,-0.0501 z"
       style="fill:#ffffff;fill-opacity:1;stroke-width:0.0511531" />
    <path
       inkscape:export-ydpi="96"
       inkscape:export-xdpi="96"
       transform="scale(0.26458333)"
       id="path2335"
       d="m 484.9574,553.80669 c -0.25096,-0.13402 -0.2901,-0.22082 -0.25408,-0.56349 0.031,-0.29468 0.026,-0.3129 -0.12538,-0.45716 -0.11861,-0.11304 -0.1576,-0.19537 -0.15745,-0.33249 2.2e-4,-0.21121 0.0969,-0.38271 0.5346,-0.94849 0.17458,-0.22566 0.55579,-0.75557 0.84714,-1.17758 0.29134,-0.42202 0.66054,-0.93994 0.82045,-1.15095 0.5362,-0.70753 1.07133,-1.1256 1.44024,-1.12518 0.22709,2.6e-4 0.48983,0.16857 0.53326,0.3416 0.0949,0.37817 -0.2315,1.15237 -1.03548,2.45596 -0.59503,0.9648 -0.91288,1.61922 -0.9884,2.03498 -0.0623,0.34324 -0.22318,0.57946 -0.55381,0.81341 -0.26268,0.18587 -0.81184,0.24249 -1.06109,0.10939 z m 0.94995,-1.24126 c 0.32981,-0.16706 0.37987,-0.30479 0.17858,-0.49134 -0.16169,-0.14985 -0.3914,-0.19149 -0.71886,-0.13031 -0.39636,0.074 -0.70572,0.34678 -0.60253,0.53119 0.0376,0.0671 0.0672,0.048 0.17033,-0.11026 0.16276,-0.24972 0.49289,-0.36355 0.85256,-0.29397 0.15935,0.0308 0.24884,0.0759 0.25918,0.13063 0.0238,0.12595 -0.47333,0.41621 -0.78229,0.45676 l -0.25576,0.0336 0.31053,0.007 c 0.24674,0.006 0.36759,-0.0217 0.58826,-0.13346 z"
       style="fill:#ffffff;fill-opacity:1;stroke-width:0.0511531" />
    <path
       inkscape:export-ydpi="96"
       inkscape:export-xdpi="96"
       transform="scale(0.26458333)"
       id="path2337"
       d="m 485.96292,552.38639 c 0.0941,-0.0914 0.18005,-0.14487 0.1911,-0.11874 0.0228,0.0538 -0.22789,0.28499 -0.30904,0.28499 -0.0292,0 0.0239,-0.0748 0.11794,-0.16625 z"
       style="fill:#ffffff;fill-opacity:1;stroke-width:0.0511531" />
    <path
       inkscape:export-ydpi="96"
       inkscape:export-xdpi="96"
       transform="scale(0.26458333)"
       id="path2339"
       d="m 445.13469,546.77737 v -18.93169 h 48.46759 48.46759 v 1.832 1.832 l -15.58721,10.63657 c -8.57297,5.85012 -15.62251,10.63502 -15.66565,10.63311 -0.0431,-0.002 -5.11634,-2.92086 -11.27379,-6.48657 -6.15745,-3.56571 -11.20579,-6.47268 -11.21853,-6.45994 -0.0476,0.0476 20.89916,22.36352 21.14814,22.53053 0.6346,0.42564 1.59581,0.63928 2.38169,0.52934 0.23983,-0.0336 0.56794,-0.10638 0.72914,-0.16184 0.73278,-0.25211 0.78629,-0.29855 4.03753,-3.50386 1.68805,-1.6642 8.09882,-7.98027 14.24614,-14.0357 l 11.17696,-11.00988 0.0129,15.69049 c 0.007,8.62977 0.003,15.7004 -0.009,15.71253 -0.0312,0.0312 -13.83686,0.0528 -58.20318,0.0912 l -38.71013,0.0335 z m 40.33424,7.20755 c -0.40136,-0.0318 -0.40332,-0.0326 -0.1023,-0.0423 0.37926,-0.0122 0.75824,-0.17901 0.97965,-0.43119 0.16181,-0.18428 0.23242,-0.3535 0.30406,-0.72863 l 0.0391,-0.20462 0.0352,0.17904 c 0.0324,0.16478 0.0358,0.15797 0.042,-0.0855 0.009,-0.35968 0.35759,-0.97359 1.28699,-2.26756 0.70114,-0.97618 0.7378,-1.05527 0.73917,-1.59461 9.3e-4,-0.36938 -0.0165,-0.46735 -0.10435,-0.5851 -0.28342,-0.38008 -0.6976,-0.4748 -1.15559,-0.26427 -0.41151,0.18915 -0.55754,0.33802 -1.17051,1.19322 -0.80864,1.12821 -1.0851,1.58578 -1.00052,1.65597 0.053,0.044 0.16421,-0.0844 0.517,-0.59661 1.10948,-1.6109 1.6664,-2.16205 2.18412,-2.16146 0.22709,2.6e-4 0.48983,0.16857 0.53326,0.3416 0.0917,0.36523 -0.24259,1.1776 -0.96254,2.33933 -0.72433,1.16881 -0.99587,1.74197 -1.08986,2.30048 -0.044,0.26117 -0.4846,0.71381 -0.77278,0.79383 -0.43223,0.12 -0.92531,0.0216 -1.04888,-0.20925 -0.0307,-0.0573 -0.0385,-0.21186 -0.0188,-0.36955 0.0316,-0.25286 0.0232,-0.28317 -0.12456,-0.45149 -0.28432,-0.32382 -0.21786,-0.53871 0.4228,-1.36715 0.27721,-0.35846 0.35988,-0.49977 0.31858,-0.54459 -0.0417,-0.0453 -0.088,-0.004 -0.18366,0.16416 -0.0703,0.12357 -0.15389,0.22477 -0.18568,0.22488 -0.078,2.6e-4 -0.4633,0.51668 -0.58422,0.78304 -0.16866,0.37149 -0.11245,0.73896 0.14926,0.9758 l 0.10598,0.0959 -0.15189,0.14189 c -0.1656,0.15469 -0.19922,0.35597 -0.0765,0.45783 0.0415,0.0344 0.20837,0.11727 0.37086,0.18409 0.23583,0.097 0.37801,0.11984 0.70466,0.11332 l 0.40923,-0.008 z m 0.69057,-0.1023 c 0,-0.0281 -0.0101,-0.0512 -0.0226,-0.0512 -0.0124,0 -0.0368,0.023 -0.0542,0.0512 -0.0174,0.0281 -0.007,0.0512 0.0226,0.0512 0.0298,0 0.0542,-0.023 0.0542,-0.0512 z m 0.23048,-0.15377 c 0.13675,-0.15112 0.0635,-0.17488 -0.0772,-0.0251 -0.066,0.0702 -0.0965,0.12768 -0.0678,0.12768 0.0287,0 0.0939,-0.0462 0.14502,-0.10261 z m 0.23058,-0.3594 c 0.0908,-0.21918 0.0352,-0.2384 -0.0674,-0.0233 -0.0468,0.0981 -0.0652,0.1784 -0.041,0.1784 0.0243,0 0.073,-0.0698 0.10836,-0.1551 z m 0.0854,-0.36603 c -0.0163,-0.0408 -0.0285,-0.0287 -0.0309,0.0309 -0.002,0.0539 0.01,0.0841 0.0269,0.0671 0.017,-0.017 0.0188,-0.0611 0.004,-0.098 z m -0.81511,-0.42838 c 0.17966,-0.0895 0.25404,-0.15436 0.23476,-0.20461 -0.0383,-0.0998 -0.0485,-0.097 -0.34213,0.0914 -0.14205,0.0912 -0.36148,0.17965 -0.49043,0.19778 l -0.23336,0.0328 0.28409,0.007 c 0.21214,0.005 0.35068,-0.0263 0.54707,-0.12422 z m -0.94837,-0.2278 c 0.10785,-0.18952 0.28921,-0.26862 0.65281,-0.2847 0.40377,-0.0179 0.39776,-0.12376 -0.007,-0.12366 -0.20731,5e-5 -0.38713,0.0323 -0.49937,0.0895 -0.20196,0.10298 -0.39027,0.33433 -0.33929,0.41682 0.0551,0.0891 0.0991,0.0667 0.19287,-0.098 z m 1.19525,-0.21389 c -0.0949,-0.13543 -0.10264,-0.10329 -0.0233,0.0963 0.0315,0.0792 0.0677,0.11582 0.0806,0.0814 0.0128,-0.0344 -0.0129,-0.11438 -0.0573,-0.17763 z m 2.36311,-12.55119 c -0.0172,-0.0172 -0.0587,0.0226 -0.0924,0.0883 -0.0586,0.11421 -0.0572,0.11559 0.0312,0.0312 0.0509,-0.0486 0.0784,-0.10233 0.0613,-0.11947 z"
       style="fill:#ffffff;fill-opacity:1;stroke-width:0.0511531" />
    <path
       inkscape:export-ydpi="96"
       inkscape:export-xdpi="96"
       transform="scale(0.26458333)"
       id="path2341"
       d="m 445.13469,546.77773 v -18.93205 h 48.46759 48.46759 v 1.83288 1.83289 l -3.33774,2.278 c -5.36521,3.66174 -9.22692,6.29708 -13.95202,9.52129 -2.43361,1.6606 -6.56247,4.47832 -9.17526,6.26161 -2.61278,1.78329 -4.77959,3.23119 -4.81514,3.21755 -0.0356,-0.0136 -4.73443,-2.72778 -10.44197,-6.03142 -12.24113,-7.08542 -11.9362,-6.91017 -11.96801,-6.87836 -0.0253,0.0253 1.4566,1.61633 10.2073,10.95889 11.17701,11.93296 10.72786,11.46443 11.22277,11.70691 0.54303,0.26606 0.94162,0.35563 1.59377,0.35814 0.94877,0.004 1.64707,-0.25678 2.32747,-0.86801 0.211,-0.18956 6.66781,-6.53485 14.34845,-14.10065 l 13.9648,-13.756 0.0129,15.69151 c 0.007,8.63033 0.003,15.70118 -0.009,15.713 -0.0343,0.0343 -13.42661,0.0561 -56.56682,0.0922 l -40.34703,0.0337 z m 40.53886,7.20719 c -0.14421,-0.0258 -0.16565,-0.0388 -0.0726,-0.0439 0.0726,-0.004 0.24524,-0.0647 0.38365,-0.13493 0.29747,-0.15092 0.28148,-0.14756 0.24456,-0.0514 -0.0162,0.0422 -0.005,0.0767 0.0243,0.0767 0.0788,0 0.22009,-0.21975 0.16374,-0.25458 -0.0294,-0.0182 -0.0294,-0.0583 0,-0.10484 0.0322,-0.0509 0.0479,-0.0547 0.0485,-0.0114 10e-4,0.10823 0.0835,0.0709 0.14603,-0.0663 0.0748,-0.16423 0.0759,-0.24406 0.003,-0.19882 -0.0367,0.0227 -0.0466,10e-4 -0.028,-0.0609 0.0158,-0.0528 0.0443,-0.16142 0.0634,-0.24146 0.0253,-0.10595 0.0466,-0.12682 0.0784,-0.0767 0.0277,0.0437 0.0439,-0.0188 0.0444,-0.17083 0.001,-0.31095 0.36413,-0.95826 1.16486,-2.07653 0.73429,-1.02549 0.84996,-1.25535 0.87442,-1.73772 0.0156,-0.30817 0.005,-0.37086 -0.0601,-0.37086 -0.0434,0 -0.0917,-0.0403 -0.10747,-0.0895 -0.0361,-0.11293 -0.49074,-0.37123 -0.65082,-0.36974 -0.0662,6.2e-4 -0.21242,0.0436 -0.32496,0.0954 -0.43923,0.20241 -0.91139,0.73478 -1.78834,2.01635 -0.24652,0.36027 -0.45846,0.64479 -0.47099,0.63226 -0.0714,-0.0714 1.38523,-2.15328 1.71502,-2.45121 0.24129,-0.218 0.44154,-0.32861 0.7089,-0.39156 0.14434,-0.034 0.161,-0.0467 0.0656,-0.0502 -0.20287,-0.007 -0.64158,0.22392 -0.88072,0.4643 -0.40636,0.40848 -1.67694,2.27635 -1.67694,2.46527 0,0.0456 -0.0223,0.0828 -0.0496,0.0828 -0.0273,0 -0.10191,0.0908 -0.16581,0.20188 -0.0639,0.11103 -0.1529,0.21148 -0.19778,0.22321 -0.11736,0.0307 -0.59952,0.77222 -0.63902,0.98276 -0.0494,0.26313 0.0162,0.5198 0.17932,0.7024 l 0.14466,0.16191 -0.14741,0.1377 c -0.18944,0.17696 -0.19468,0.37023 -0.0133,0.48909 0.26272,0.17214 0.64719,0.26938 1.04239,0.26362 0.32107,-0.005 0.35027,-0.0116 0.17904,-0.0422 z m 0.48595,-0.1023 c 0,-0.0281 -0.023,-0.0512 -0.0512,-0.0512 -0.0281,0 -0.0511,0.023 -0.0511,0.0512 0,0.0281 0.023,0.0512 0.0511,0.0512 0.0281,0 0.0512,-0.023 0.0512,-0.0512 z m 0.54648,-0.8792 c -0.0163,-0.0408 -0.0285,-0.0287 -0.0309,0.0309 -0.002,0.0539 0.01,0.0841 0.0269,0.0671 0.017,-0.017 0.0188,-0.0611 0.004,-0.098 z m 1.87844,-4.90817 c -0.10335,-0.11598 -0.42318,-0.27252 -0.46709,-0.22861 -0.0143,0.0144 0.0342,0.0412 0.10784,0.0597 0.0736,0.0185 0.13392,0.0534 0.13392,0.0776 0,0.0369 0.23601,0.19212 0.30206,0.19865 0.0114,10e-4 -0.0231,-0.0472 -0.0767,-0.10732 z m -0.0836,-8.51309 c -0.0172,-0.0172 -0.0587,0.0226 -0.0924,0.0883 -0.0586,0.11421 -0.0572,0.11559 0.0312,0.0312 0.0509,-0.0486 0.0784,-0.10233 0.0613,-0.11947 z"
       style="fill:#ffffff;fill-opacity:1;stroke-width:0.0511531" />
    <path
       inkscape:export-ydpi="96"
       inkscape:export-xdpi="96"
       id="path2343"
       d="m 117.77522,144.66835 v -5.0093 h 12.82372 12.82371 v 0.48534 0.48533 l -3.04182,2.07583 c -1.673,1.14172 -3.53136,2.40976 -4.12969,2.81788 -0.59832,0.4081 -1.09557,0.73905 -1.105,0.73544 -0.009,-0.004 -1.27394,-0.73389 -2.81001,-1.62283 -3.296,-1.9074 -3.11091,-1.80091 -3.11792,-1.79389 -0.007,0.007 -0.0106,0.003 1.31967,1.42532 1.67109,1.78709 3.47507,3.71054 3.87288,4.12935 0.33867,0.35657 0.36777,0.38365 0.46722,0.43493 0.14343,0.074 0.26289,0.1018 0.43765,0.10191 0.27002,2.5e-4 0.43947,-0.0704 0.65543,-0.27325 0.15414,-0.14479 0.65442,-0.637 5.92222,-5.82655 l 1.52261,-1.49999 0.003,4.15227 c 0.002,2.28374 7.9e-4,4.1549 -0.002,4.15813 -0.01,0.01 -2.89243,0.0146 -14.5063,0.0242 l -11.13532,0.009 z m 10.71237,1.90681 c -0.039,-0.01 -0.0392,-0.01 -0.006,-0.0119 0.0192,-8.1e-4 0.0649,-0.0168 0.10151,-0.0354 0.0784,-0.0398 0.0785,-0.0398 0.0685,-0.0136 -0.0118,0.0308 0.0141,0.0243 0.0378,-0.009 0.0118,-0.0168 0.0154,-0.0332 0.008,-0.0376 -0.008,-0.005 -0.008,-0.0154 0,-0.0277 0.0111,-0.0175 0.0127,-0.0174 0.0133,2.8e-4 5.2e-4,0.0144 0.008,0.011 0.0273,-0.0116 0.0285,-0.0341 0.0366,-0.0773 0.0116,-0.0619 -0.01,0.005 -0.0123,2.7e-4 -0.007,-0.0161 0.004,-0.0139 0.0117,-0.0427 0.0168,-0.0639 0.007,-0.028 0.0123,-0.0335 0.0207,-0.0203 0.007,0.0116 0.0116,-0.005 0.0117,-0.0452 2.6e-4,-0.0822 0.0936,-0.24811 0.31661,-0.56256 0.18688,-0.26354 0.21318,-0.31561 0.22205,-0.43969 0.006,-0.0856 0.004,-0.094 -0.0296,-0.1277 -0.0241,-0.0242 -0.031,-0.0393 -0.0208,-0.0456 0.0187,-0.0116 -0.0598,-0.0736 -0.10919,-0.0861 -0.0309,-0.008 -0.0316,-0.007 -0.008,0.009 0.0544,0.0365 0.10237,0.0913 0.11142,0.12741 0.0233,0.0926 -0.0713,0.32924 -0.23622,0.59098 -0.18621,0.29556 -0.28463,0.49921 -0.30633,0.63379 -0.0102,0.0631 -0.0968,0.16263 -0.17412,0.20003 -0.10401,0.0504 -0.27012,0.0292 -0.30665,-0.0391 -0.01,-0.0182 -0.0122,-0.0556 -0.007,-0.1007 0.008,-0.0669 0.006,-0.0749 -0.033,-0.11945 -0.0733,-0.0835 -0.0589,-0.13829 0.0858,-0.32573 0.0471,-0.0611 0.097,-0.12992 0.11095,-0.1531 0.0139,-0.0232 0.0502,-0.0749 0.0806,-0.11503 0.0304,-0.0401 0.10654,-0.14595 0.16917,-0.23523 0.19285,-0.27489 0.3358,-0.40632 0.46502,-0.42755 l 0.0549,-0.009 -0.0541,-0.001 c -0.0812,-0.002 -0.15819,0.0402 -0.25659,0.14106 -0.10905,0.11177 -0.11823,0.0959 -0.0107,-0.0185 0.0546,-0.0581 0.10406,-0.0949 0.16579,-0.12335 0.0897,-0.0413 0.0808,-0.0589 -0.0106,-0.0208 -0.12088,0.0503 -0.18833,0.12251 -0.40386,0.43248 -0.12259,0.17631 -0.1946,0.29592 -0.1946,0.32323 0,0.0121 -0.006,0.0219 -0.0131,0.0219 -0.007,0 -0.027,0.0243 -0.044,0.054 -0.017,0.0298 -0.0372,0.0541 -0.045,0.0541 -0.019,1.4e-4 -0.11216,0.12368 -0.15088,0.20014 -0.0488,0.0965 -0.0381,0.18885 0.0302,0.2605 l 0.0326,0.0343 -0.0403,0.038 c -0.0438,0.0413 -0.0521,0.0901 -0.0198,0.11699 0.0471,0.0391 0.18995,0.0797 0.27735,0.0788 0.0681,-8e-4 0.0788,-0.003 0.0474,-0.0112 z m 0.14211,-0.0271 c 0,-0.007 -0.006,-0.0135 -0.0135,-0.0135 -0.007,0 -0.0135,0.005 -0.0135,0.0135 0,0.007 0.006,0.0136 0.0135,0.0136 0.007,0 0.0135,-0.005 0.0135,-0.0136 z m 0.14459,-0.23263 c -0.004,-0.011 -0.008,-0.008 -0.008,0.008 -5.3e-4,0.0143 0.003,0.0222 0.007,0.0177 0.005,-0.004 0.005,-0.0161 0.001,-0.0259 z m -0.26343,-0.0928 c 0.056,-0.0156 0.13238,-0.0735 0.13238,-0.10048 0,-0.01 -0.01,-0.0257 -0.0223,-0.0359 -0.0196,-0.0163 -0.0213,-0.0153 -0.0141,0.008 0.007,0.0219 -0.006,0.0359 -0.0691,0.0739 -0.0425,0.0258 -0.10165,0.0508 -0.13142,0.0558 l -0.0541,0.009 0.0541,0.002 c 0.0298,8e-4 0.0768,-0.005 0.10447,-0.0123 z m -0.19921,-0.0835 c 0.0315,-0.0494 0.0951,-0.0758 0.18609,-0.0773 0.0354,-5.2e-4 0.0643,-0.007 0.0643,-0.0146 0,-0.0237 -0.15188,-0.0147 -0.21211,0.0127 -0.0588,0.0267 -0.10787,0.0841 -0.0928,0.10849 0.0138,0.0224 0.0255,0.0162 0.0545,-0.0294 z m 0.93754,-3.37479 c -0.005,-0.005 -0.0155,0.005 -0.0245,0.0234 -0.0155,0.0302 -0.0151,0.0306 0.008,0.008 0.0135,-0.0128 0.0207,-0.0271 0.0162,-0.0316 z"
       style="fill:#ffffff;fill-opacity:1;stroke-width:0.0135344" />
    <rect
       ry="6.671773"
       y="128.61411"
       x="168.16035"
       height="13.343546"
       width="14.343638"
       id="rect2345"
       style="fill:#ffffff;fill-opacity:1;stroke-width:0.264583" />
    <rect
       ry="0.21333583"
       y="137.73161"
       x="159.95384"
       height="0.42667165"
       width="16.364683"
       id="rect2347"
       style="fill:#ffffff;fill-opacity:1;stroke-width:0.264583" />
    <rect
       inkscape:export-ydpi="96"
       inkscape:export-xdpi="96"
       ry="0.096593596"
       y="132.57684"
       x="125.68663"
       height="3.1957176"
       width="4.5071764"
       id="rect2349"
       style="fill:#ffffff;fill-opacity:1;stroke-width:0.177406" />
    <rect
       inkscape:export-ydpi="96"
       inkscape:export-xdpi="96"
       style="fill:#ffffff;fill-opacity:1;stroke-width:0.177406"
       id="rect2349-3"
       width="4.5071764"
       height="3.1957176"
       x="125.90279"
       y="144.96085"
       ry="0.096593596" />
    <rect
       inkscape:export-ydpi="96"
       inkscape:export-xdpi="96"
       style="fill:#ffffff;fill-opacity:1;stroke-width:0.177406"
       id="rect2349-6"
       width="4.5071764"
       height="3.1957176"
       x="125.15191"
       y="157.28105"
       ry="0.096593596" />
    <rect
       inkscape:export-ydpi="96"
       inkscape:export-xdpi="96"
       style="fill:#ffffff;fill-opacity:1;stroke-width:0.177406"
       id="rect2349-7"
       width="4.5071764"
       height="3.1957176"
       x="126.07255"
       y="167.9727"
       ry="0.096593596" />
  </g>
</svg>
